<mxfile modified="2019-12-15T11:45:01.830Z" host="www.draw.io" agent="Mozilla/5.0 (Windows NT 6.1; Win64; x64; rv:72.0) Gecko/20100101 Firefox/72.0" etag="A_So7sQ0G87e61cuSybk" version="12.4.2" type="github" pages="1">
  <diagram id="WI9T0HZ2pTsCkuznbFz-" name="Page-1">
    <mxGraphModel dx="868" dy="489" grid="1" gridSize="10" guides="1" tooltips="1" connect="1" arrows="1" fold="1" page="0" pageScale="1" pageWidth="1169" pageHeight="827" background="#ffffff" math="0" shadow="1">
      <root>
        <mxCell id="0"/>
        <mxCell id="1" parent="0"/>
        <mxCell id="rQFqvypUnClOA0IYu4vr-19" style="edgeStyle=none;rounded=0;orthogonalLoop=1;jettySize=auto;html=1;entryX=-0.096;entryY=0.558;entryDx=0;entryDy=0;entryPerimeter=0;startArrow=classic;startFill=1;endArrow=classicThin;endFill=1;strokeColor=#808080;strokeWidth=5;" parent="1" source="rQFqvypUnClOA0IYu4vr-1" target="rQFqvypUnClOA0IYu4vr-12" edge="1">
          <mxGeometry relative="1" as="geometry">
            <Array as="points">
              <mxPoint x="132" y="242"/>
              <mxPoint x="132" y="219"/>
              <mxPoint x="181" y="219"/>
            </Array>
          </mxGeometry>
        </mxCell>
        <mxCell id="rQFqvypUnClOA0IYu4vr-20" value="&lt;font style=&quot;font-size: 14px&quot;&gt;&lt;b&gt;Request/Response&lt;/b&gt;&lt;/font&gt;" style="text;html=1;align=center;verticalAlign=middle;resizable=0;points=[];;labelBackgroundColor=#ffffff;" parent="rQFqvypUnClOA0IYu4vr-19" vertex="1" connectable="0">
          <mxGeometry x="-0.7908" y="-4" relative="1" as="geometry">
            <mxPoint x="100.87" y="-26.78" as="offset"/>
          </mxGeometry>
        </mxCell>
        <mxCell id="rQFqvypUnClOA0IYu4vr-1" value="User Interface" style="shape=image;verticalLabelPosition=bottom;verticalAlign=top;imageAspect=0;aspect=fixed;image=data:image/svg+xml,PHN2ZyB4bWxuczpkYz0iaHR0cDovL3B1cmwub3JnL2RjL2VsZW1lbnRzLzEuMS8iIHhtbG5zOmNjPSJodHRwOi8vY3JlYXRpdmVjb21tb25zLm9yZy9ucyMiIHhtbG5zOnJkZj0iaHR0cDovL3d3dy53My5vcmcvMTk5OS8wMi8yMi1yZGYtc3ludGF4LW5zIyIgeG1sbnM6c3ZnPSJodHRwOi8vd3d3LnczLm9yZy8yMDAwL3N2ZyIgeG1sbnM9Imh0dHA6Ly93d3cudzMub3JnLzIwMDAvc3ZnIiB4bWxuczpzb2RpcG9kaT0iaHR0cDovL3NvZGlwb2RpLnNvdXJjZWZvcmdlLm5ldC9EVEQvc29kaXBvZGktMC5kdGQiIHhtbG5zOmlua3NjYXBlPSJodHRwOi8vd3d3Lmlua3NjYXBlLm9yZy9uYW1lc3BhY2VzL2lua3NjYXBlIiB2ZXJzaW9uPSIxLjEiIGlkPSJMYXllcl8xIiB4PSIwcHgiIHk9IjBweCIgd2lkdGg9IjUwIiBoZWlnaHQ9IjUwIiB2aWV3Qm94PSIwIDAgNTAgNTAiIGVuYWJsZS1iYWNrZ3JvdW5kPSJuZXcgMCAwIDUwIDUwIiB4bWw6c3BhY2U9InByZXNlcnZlIiBzb2RpcG9kaTpkb2NuYW1lPSJkZXZpY2VzX2dyb3Vwcy5zdmciIGlua3NjYXBlOnZlcnNpb249IjAuOTIuMyAoMjQwNTU0NiwgMjAxOC0wMy0xMSkiPjxtZXRhZGF0YSBpZD0ibWV0YWRhdGExMDkwOSI+PHJkZjpSREY+PGNjOldvcmsgcmRmOmFib3V0PSIiPjxkYzpmb3JtYXQ+aW1hZ2Uvc3ZnK3htbDwvZGM6Zm9ybWF0PjxkYzp0eXBlIHJkZjpyZXNvdXJjZT0iaHR0cDovL3B1cmwub3JnL2RjL2RjbWl0eXBlL1N0aWxsSW1hZ2UiLz48ZGM6dGl0bGUvPjwvY2M6V29yaz48L3JkZjpSREY+PC9tZXRhZGF0YT48ZGVmcyBpZD0iZGVmczEwOTA3Ii8+PHNvZGlwb2RpOm5hbWVkdmlldyBwYWdlY29sb3I9IiNmZmZmZmYiIGJvcmRlcmNvbG9yPSIjNjY2NjY2IiBib3JkZXJvcGFjaXR5PSIxIiBvYmplY3R0b2xlcmFuY2U9IjEwIiBncmlkdG9sZXJhbmNlPSIxMCIgZ3VpZGV0b2xlcmFuY2U9IjEwIiBpbmtzY2FwZTpwYWdlb3BhY2l0eT0iMCIgaW5rc2NhcGU6cGFnZXNoYWRvdz0iMiIgaW5rc2NhcGU6d2luZG93LXdpZHRoPSIxOTIwIiBpbmtzY2FwZTp3aW5kb3ctaGVpZ2h0PSIxMDE3IiBpZD0ibmFtZWR2aWV3MTA5MDUiIHNob3dncmlkPSJmYWxzZSIgZml0LW1hcmdpbi10b3A9IjAiIGZpdC1tYXJnaW4tbGVmdD0iMCIgZml0LW1hcmdpbi1yaWdodD0iMCIgZml0LW1hcmdpbi1ib3R0b209IjAiIGlua3NjYXBlOnpvb209IjE3IiBpbmtzY2FwZTpjeD0iMjUiIGlua3NjYXBlOmN5PSIyNSIgaW5rc2NhcGU6d2luZG93LXg9Ii04IiBpbmtzY2FwZTp3aW5kb3cteT0iLTgiIGlua3NjYXBlOndpbmRvdy1tYXhpbWl6ZWQ9IjEiIGlua3NjYXBlOmN1cnJlbnQtbGF5ZXI9IkxheWVyXzEiLz4mI3hhOzxwYXRoIGQ9Im0gNDYsMzMgYyAwLDEuNjU3IC0xLjM1OSwzIC0zLjAzNiwzIEggMy4wMzYgQyAxLjM1OSwzNiAwLDM0LjY1NyAwLDMzIFYgMyBDIDAsMS4zNDMgMS4zNTksMCAzLjAzNiwwIEggNDIuOTY0IEMgNDQuNjQxLDAgNDYsMS4zNDMgNDYsMyBaIiBpZD0icGF0aDEwODg4IiBpbmtzY2FwZTpjb25uZWN0b3ItY3VydmF0dXJlPSIwIiBzdHlsZT0iZmlsbDojM2UzZTNlIi8+JiN4YTs8cmVjdCB4PSIyLjk2MTk5OTkiIHk9IjUiIHdpZHRoPSI0MC4wMzc5OTgiIGhlaWdodD0iMjYiIGlkPSJyZWN0MTA4OTAiIHN0eWxlPSJmaWxsOiMzOTk5YzYiLz4mI3hhOzxwYXRoIGQ9Im0gMjYsMi42ODkgYyAwLDAuMzggLTAuMzA4LDAuNjg4IC0wLjY4OCwwLjY4OCBIIDIwLjg5IEMgMjAuNTA5LDMuMzc3IDIwLjIsMy4wNjkgMjAuMiwyLjY4OSAyMC4yLDIuMzA5IDIwLjUwOSwyIDIwLjg5LDIgaCA0LjQyMiBDIDI1LjY5MiwyIDI2LDIuMzA5IDI2LDIuNjg5IiBpZD0icGF0aDEwODkyIiBpbmtzY2FwZTpjb25uZWN0b3ItY3VydmF0dXJlPSIwIiBzdHlsZT0iZmlsbDojZmZmZmZmIi8+JiN4YTs8cGF0aCBlbmFibGUtYmFja2dyb3VuZD0ibmV3ICAgICIgZD0iTSAzMSwwIEggMyBDIDEuMzQzLDAgMCwxLjM0MyAwLDMgdiAzMCBjIDAsMS42NTggMS4zNDMsMyAzLDMgaCAxMiB6IiBpZD0icGF0aDEwODk0IiBpbmtzY2FwZTpjb25uZWN0b3ItY3VydmF0dXJlPSIwIiBzdHlsZT0ib3BhY2l0eTowLjE1O2ZpbGw6I2ZmZmZmZiIvPiYjeGE7PHBhdGggZD0iTSA1MCw0Ny41NDUgQyA1MCw0OC45MDEgNDguOTEzLDUwIDQ3LjU3Miw1MCBIIDI5LjQyOCBDIDI4LjA4Nyw1MCAyNyw0OC45MDEgMjcsNDcuNTQ1IFYgMTYuNDU1IEMgMjcsMTUuMDk5IDI4LjA4NywxNCAyOS40MjgsMTQgSCA0Ny41NzEgQyA0OC45MTMsMTQgNTAsMTUuMDk5IDUwLDE2LjQ1NSBaIiBpZD0icGF0aDEwODk2IiBpbmtzY2FwZTpjb25uZWN0b3ItY3VydmF0dXJlPSIwIiBzdHlsZT0iZmlsbDojM2UzZTNlIi8+JiN4YTs8cmVjdCB4PSIyOSIgeT0iMTgiIHdpZHRoPSIxOSIgaGVpZ2h0PSIyNyIgaWQ9InJlY3QxMDg5OCIgc3R5bGU9ImZpbGw6IzU5YjRkOSIvPiYjeGE7PHBhdGggZD0ibSA0Mi42MDcsMTYuMTcxIGMgMCwwLjMzNSAtMC40MzYsMC42MDYgLTAuOTc0LDAuNjA2IEggMzUuMzcgYyAtMC41NCwwIC0wLjk3NywtMC4yNzEgLTAuOTc3LC0wLjYwNiAwLC0wLjMzNSAwLjQzNywtMC42MDcgMC45NzcsLTAuNjA3IGggNi4yNjMgYyAwLjUzOCwwIDAuOTc0LDAuMjcyIDAuOTc0LDAuNjA3IiBpZD0icGF0aDEwOTAwIiBpbmtzY2FwZTpjb25uZWN0b3ItY3VydmF0dXJlPSIwIiBzdHlsZT0iZmlsbDojZmZmZmZmIi8+JiN4YTs8cGF0aCBlbmFibGUtYmFja2dyb3VuZD0ibmV3ICAgICIgZD0iTSA0NS4wODksMTQgSCAyOS40NjQgQyAyOC4xMDMsMTQgMjcsMTUuMDk5IDI3LDE2LjQ1NSBWIDQ3LjU0NiBDIDI3LDQ4LjkwMiAyOC4xMDMsNTAgMjkuNDY0LDUwIEggMzEuNiBaIiBpZD0icGF0aDEwOTAyIiBpbmtzY2FwZTpjb25uZWN0b3ItY3VydmF0dXJlPSIwIiBzdHlsZT0ib3BhY2l0eTowLjE1O2ZpbGw6I2ZmZmZmZiIvPiYjeGE7PC9zdmc+;fontStyle=1;fontSize=14;" parent="1" vertex="1">
          <mxGeometry x="30" y="220" width="50" height="50" as="geometry"/>
        </mxCell>
        <mxCell id="rQFqvypUnClOA0IYu4vr-10" value="Servlet container" style="swimlane;strokeColor=#4D4D4D;strokeWidth=6;fontSize=14;startSize=29;" parent="1" vertex="1">
          <mxGeometry x="299" y="141" width="140" height="200" as="geometry"/>
        </mxCell>
        <mxCell id="rQFqvypUnClOA0IYu4vr-11" value="&lt;font style=&quot;font-size: 14px&quot;&gt;&lt;b&gt;Thread Pool&lt;/b&gt;&lt;/font&gt;" style="text;html=1;align=center;verticalAlign=middle;resizable=0;points=[];;autosize=1;" parent="rQFqvypUnClOA0IYu4vr-10" vertex="1">
          <mxGeometry y="155" width="100" height="20" as="geometry"/>
        </mxCell>
        <mxCell id="rQFqvypUnClOA0IYu4vr-14" style="edgeStyle=orthogonalEdgeStyle;rounded=0;orthogonalLoop=1;jettySize=auto;html=1;strokeWidth=5;fillColor=#f8cecc;strokeColor=#FF513D;entryX=-0.04;entryY=0.56;entryDx=0;entryDy=0;entryPerimeter=0;" parent="1" source="rQFqvypUnClOA0IYu4vr-12" target="_erQFh2zbSMZ1la7vPeI-1" edge="1">
          <mxGeometry relative="1" as="geometry">
            <mxPoint x="630" y="245" as="targetPoint"/>
            <Array as="points">
              <mxPoint x="590" y="215"/>
              <mxPoint x="590" y="245"/>
            </Array>
          </mxGeometry>
        </mxCell>
        <mxCell id="rQFqvypUnClOA0IYu4vr-15" value="&lt;font style=&quot;font-size: 14px&quot;&gt;&lt;b&gt;External Service call&lt;br&gt;&lt;/b&gt;&lt;/font&gt;" style="text;html=1;align=center;verticalAlign=middle;resizable=0;points=[];;labelBackgroundColor=#ffffff;" parent="rQFqvypUnClOA0IYu4vr-14" vertex="1" connectable="0">
          <mxGeometry x="-0.1921" y="-1" relative="1" as="geometry">
            <mxPoint as="offset"/>
          </mxGeometry>
        </mxCell>
        <mxCell id="rQFqvypUnClOA0IYu4vr-12" value="Thread 1" style="shape=image;verticalLabelPosition=bottom;labelBackgroundColor=#ffffff;verticalAlign=top;aspect=fixed;imageAspect=0;image=data:image/svg+xml,PHN2ZyB4bWxuczpkYz0iaHR0cDovL3B1cmwub3JnL2RjL2VsZW1lbnRzLzEuMS8iIHhtbG5zOmNjPSJodHRwOi8vY3JlYXRpdmVjb21tb25zLm9yZy9ucyMiIHhtbG5zOnJkZj0iaHR0cDovL3d3dy53My5vcmcvMTk5OS8wMi8yMi1yZGYtc3ludGF4LW5zIyIgeG1sbnM6c3ZnPSJodHRwOi8vd3d3LnczLm9yZy8yMDAwL3N2ZyIgeG1sbnM9Imh0dHA6Ly93d3cudzMub3JnLzIwMDAvc3ZnIiB4bWxuczpzb2RpcG9kaT0iaHR0cDovL3NvZGlwb2RpLnNvdXJjZWZvcmdlLm5ldC9EVEQvc29kaXBvZGktMC5kdGQiIHhtbG5zOmlua3NjYXBlPSJodHRwOi8vd3d3Lmlua3NjYXBlLm9yZy9uYW1lc3BhY2VzL2lua3NjYXBlIiB2ZXJzaW9uPSIxLjEiIGlkPSJzdmc1MjEyMyIgaW5rc2NhcGU6dmVyc2lvbj0iMC45Mi4zICgyNDA1NTQ2LCAyMDE4LTAzLTExKSIgc29kaXBvZGk6ZG9jbmFtZT0iYXp1cmVfYXV0b21hdGlvbi5zdmciIHg9IjBweCIgeT0iMHB4IiB2aWV3Qm94PSIwIDAgNTYuOTMgNTEuNTkiIHhtbDpzcGFjZT0icHJlc2VydmUiIHdpZHRoPSI1Ni45MyIgaGVpZ2h0PSI1MS41OSI+PG1ldGFkYXRhIGlkPSJtZXRhZGF0YTY3NCI+PHJkZjpSREY+PGNjOldvcmsgcmRmOmFib3V0PSIiPjxkYzpmb3JtYXQ+aW1hZ2Uvc3ZnK3htbDwvZGM6Zm9ybWF0PjxkYzp0eXBlIHJkZjpyZXNvdXJjZT0iaHR0cDovL3B1cmwub3JnL2RjL2RjbWl0eXBlL1N0aWxsSW1hZ2UiLz48ZGM6dGl0bGUvPjwvY2M6V29yaz48L3JkZjpSREY+PC9tZXRhZGF0YT48ZGVmcyBpZD0iZGVmczY3MiI+JiN4YTsJJiN4YTsmI3hhOwkmI3hhOyYjeGE7CSYjeGE7JiN4YTsJJiN4YTsmI3hhOwkmI3hhOyYjeGE7CQkmI3hhOwkmI3hhOwkJJiN4YTsJJiN4YTsJCSYjeGE7CSYjeGE7CQkmI3hhOwk8L2RlZnM+JiN4YTs8ZmlsdGVyIGlkPSJmaWx0ZXJfMiI+JiN4YTsJPGZlR2F1c3NpYW5CbHVyIGlkPSJmZUdhdXNzaWFuQmx1cjUyMDcyIiBzdGREZXZpYXRpb249IjIiLz4mI3hhOzwvZmlsdGVyPiYjeGE7PHNvZGlwb2RpOm5hbWVkdmlldyBib3JkZXJjb2xvcj0iIzY2NjY2NiIgYm9yZGVyb3BhY2l0eT0iMSIgZml0LW1hcmdpbi1ib3R0b209IjAiIGZpdC1tYXJnaW4tbGVmdD0iMCIgZml0LW1hcmdpbi1yaWdodD0iMCIgZml0LW1hcmdpbi10b3A9IjAiIGdyaWR0b2xlcmFuY2U9IjEwIiBndWlkZXRvbGVyYW5jZT0iMTAiIGlkPSJuYW1lZHZpZXc1MjEyNSIgaW5rc2NhcGU6Y3VycmVudC1sYXllcj0ic3ZnNTIxMjMiIGlua3NjYXBlOmN4PSI0OC4wMDMzMiIgaW5rc2NhcGU6Y3k9IjIwLjQzODA2IiBpbmtzY2FwZTpwYWdlb3BhY2l0eT0iMCIgaW5rc2NhcGU6cGFnZXNoYWRvdz0iMiIgaW5rc2NhcGU6d2luZG93LWhlaWdodD0iMTAxNyIgaW5rc2NhcGU6d2luZG93LW1heGltaXplZD0iMSIgaW5rc2NhcGU6d2luZG93LXdpZHRoPSIxOTIwIiBpbmtzY2FwZTp3aW5kb3cteD0iLTgiIGlua3NjYXBlOndpbmRvdy15PSItOCIgaW5rc2NhcGU6em9vbT0iOC41NDc4Njc4IiBvYmplY3R0b2xlcmFuY2U9IjEwIiBwYWdlY29sb3I9IiNmZmZmZmYiIHNob3dncmlkPSJmYWxzZSI+JiN4YTsJPC9zb2RpcG9kaTpuYW1lZHZpZXc+JiN4YTsmI3hhOzxwYXRoIGlkPSJwYXRoNTIwODUiIGlua3NjYXBlOmNvbm5lY3Rvci1jdXJ2YXR1cmU9IjAiIHN0eWxlPSJmaWxsOiNhMGExYTIiIGQ9Im0gNTIuNjksMjQuNjYgYyAwLC0wLjQzIC0wLjAzLC0wLjg0IC0wLjA3LC0xLjI3IGwgNC4zLC0yLjM4IGMgLTAuMjMsLTEuNDIgLTAuNiwtMi44MSAtMS4xLC00LjEzIGwgLTQuOTEsMC4wOSBjIC0wLjM3LC0wLjc2IC0wLjc4LC0xLjUxIC0xLjI0LC0yLjIgbCAyLjUyLC00LjIyIEMgNTEuMjgsOS40NSA1MC4yNyw4LjQzIDQ5LjE4LDcuNTQgbCAtMi40OSwxLjQ4IC0xLjA1LDEuNTYgLTIuMjYsMy4zMyBjIDMuMjEsMi40OSA1LjI3LDYuMzcgNS4yNywxMC43NSAwLDcuNTEgLTYuMDcsMTMuNTkgLTEzLjU3LDEzLjU5IC03LjQ5LDAgLTEzLjU4LC02LjA4IC0xMy41OCwtMTMuNTkgMCwtNi43MyA0Ljg4LC0xMi4yOCAxMS4yOCwtMTMuMzggTCAzMy44MSw3LjEgMzEuNDMsMi43OSBDIDMwLjAxLDMuMDIgMjguNjQsMy40IDI3LjMyLDMuOSBsIDAuMDcsNC45MiBDIDI2LjY1LDkuMTggMjUuOSw5LjU5IDI1LjIxLDEwLjA3IEwgMjAuOTksNy41NCBjIC0xLjEsMC44OSAtMi4xLDEuOTEgLTMuMDEsMy4wMSBsIDIuNTMsNC4yMiBjIC0wLjQ4LDAuNjkgLTAuODcsMS40NCAtMS4yNSwyLjIgbCAtNC45MiwtMC4wOSBjIC0wLjQ5LDEuMzIgLTAuODYsMi43MSAtMS4wOSw0LjEzIGwgNC4yOSwyLjM4IGMgLTAuMDQsMC40MyAtMC4wNiwwLjg0IC0wLjA2LDEuMjcgMCwwLjQyIDAuMDIsMC44MyAwLjA2LDEuMjYgbCAtNC4yOSwyLjM4IGMgMC4yMywxLjQzIDAuNiwyLjgyIDEuMSw0LjEzIGwgNC45MSwtMC4wOSBjIDAuMzgsMC43NyAwLjc3LDEuNTEgMS4yNSwyLjIxIGwgLTIuNTMsNC4yMiBjIDAuOTEsMS4xIDEuOTEsMi4xMSAzLjAxLDMuMDIgbCA0LjIyLC0yLjU0IGMgMC42OSwwLjQ4IDEuNDQsMC44OSAyLjE4LDEuMjYgbCAtMC4wNyw0LjkxIGMgMS4zMiwwLjUgMi42OSwwLjg3IDQuMTEsMS4xIGwgMi40LC00LjMgYyAwLjQxLDAuMDMgMC44MiwwLjA3IDEuMjUsMC4wNyAwLjQyLDAgMC44NSwtMC4wNCAxLjI2LC0wLjA3IGwgMi4zOCw0LjMgYyAxLjQzLC0wLjIzIDIuODIsLTAuNiA0LjEzLC0xLjEgbCAtMC4wOSwtNC45MSBjIDAuNzcsLTAuMzggMS41LC0wLjc5IDIuMjEsLTEuMjcgbCA0LjIyLDIuNTUgYyAxLjA4LC0wLjkxIDIuMSwtMS45MiAzLC0zLjAzIGwgLTIuNTIsLTQuMjEgYyAwLjQ2LC0wLjcgMC44NywtMS40NCAxLjI0LC0yLjIxIGwgNC45MSwwLjA5IGMgMC41LC0xLjMyIDAuODgsLTIuNyAxLjExLC00LjEzIGwgLTQuMzEsLTIuMzggYyAwLjA0LC0wLjQzIDAuMDcsLTAuODQgMC4wNywtMS4yNiB6Ii8+JiN4YTsmI3hhOzxwYXRoIGlkPSJwYXRoNTIwOTMiIGlua3NjYXBlOmNvbm5lY3Rvci1jdXJ2YXR1cmU9IjAiIHN0eWxlPSJmaWxsOiM3YTdhN2EiIGQ9Im0gMTguMjIsNDMuMyB2IC0yLjEyIGwgLTAuMTIsLTAuMSAtMi4xNiwtMC43MyAtMC41NiwtMS40NiAxLjA3LC0yLjIyIDAuMTIsLTAuMjUgLTAuNjcsLTAuNjggLTAuODIsLTAuODIgLTAuMjgsMC4xNCAtMi4xMiwxLjA5IC0xLjQ2LC0wLjQxIC0wLjkyLC0yLjM3IEggOC4yIEwgOC4wOSwzMy40OCA3LjM2LDM1LjY0IDUuODksMzYuMiAzLjQzLDM1LjAyIDEuOTQsMzYuNSAyLjA4LDM2Ljc4IDMuMTcsMzguODkgMi41Niw0MC4zNSAwLDQxLjI3IHYgMi4xMiBsIDAuMywwLjA5IDIuMjYsMC43NSAwLjYxLDEuNDUgLTEuMTYsMi40NiAxLjQ5LDEuNTEgMC4yOSwtMC4xNCAyLjEyLC0xLjA5IDEuNDUsMC42MSAwLjkzLDIuNTYgaCAyLjEyIGwgMC4wOSwtMC4zIDAuNzQsLTIuMjYgMS40NCwtMC42IDIuNDgsMS4xNSAxLjQ5LC0xLjQ5IC0wLjE0LC0wLjI5IC0xLjA5LC0yLjExIDAuNDIsLTEuNDggeiBNIDkuMyw0NS4yNiBjIC0xLjYzLDAgLTIuOTcsLTEuMzQgLTIuOTcsLTIuOTcgMCwtMS42NCAxLjM0LC0yLjk3IDIuOTcsLTIuOTcgMS42NCwwIDIuOTYsMS4zMyAyLjk2LDIuOTcgMCwxLjYzIC0xLjMyLDIuOTcgLTIuOTYsMi45NyB6Ii8+JiN4YTsmI3hhOzxwYXRoIGlkPSJwYXRoNTIxMDEiIGlua3NjYXBlOmNvbm5lY3Rvci1jdXJ2YXR1cmU9IjAiIHN0eWxlPSJmaWxsOiNmY2QxMTYiIGQ9Im0gMzcuOTEsMCAtMC44MiwyLjU4IC0xLjQxLDQuNDggLTAuNjcsMi4xNSAtMC41OSwxLjg5IC00LjA5LDEzIGMgLTAuMDksMC4yNSAwLjAzLDAuNDUgMC4zMiwwLjQ1IGggMy43NyBjIDAuMTIsMCAwLjIxLDAuMDMgMC4yNywwLjExIDAuMDksMC4wOCAwLjEsMC4yMSAwLjA1LDAuMzUgbCAtMy45LDkuNDUgYyAtMC4xLDAuMjUgLTAuMDMsMC4zIDAuMTUsMC4wOSBMIDQzLjMyLDIwLjU2IGMgMC4xNywtMC4yMSAwLjEsLTAuMzcgLTAuMTYsLTAuMzcgbCAtNC4wNCwwLjAyIC0wLjc1LDAuMDIgYyAtMC4yNywwIC0wLjM5LC0wLjIgLTAuMjUsLTAuNDMgbCAzLjg0LC02Ljg1IDAuOTEsLTEuNjQgMS4wNSwtMS44OCAyLjI0LC0zLjk3IDEuMjgsLTIuMzEgQyA0NC41OCwxLjQ5IDQxLjM2LDAuMzkgMzcuOTEsMCBaIi8+JiN4YTsmI3hhOzxwYXRoIGlkPSJwYXRoNTIxMDkiIGlua3NjYXBlOmNvbm5lY3Rvci1jdXJ2YXR1cmU9IjAiIHN0eWxlPSJmaWxsOiNmZjhjMDA7ZmlsbC1vcGFjaXR5OjAuMyIgZD0ibSA0NC45OCwxLjkxIC04LjkzLDE4LjMgaCAyLjIyIEMgMzguMDgsMjAuMTcgMzcuOTksMjAgMzguMTEsMTkuOCBsIDMuODUsLTYuODUgMC45LC0xLjYzIDEuMDUsLTEuODkgMi4yNSwtMy45NyAxLjI4LC0yLjMxIEMgNDYuNjQsMi42OSA0NS44MiwyLjI4IDQ0Ljk4LDEuOTEgWiIvPiYjeGE7JiN4YTs8cGF0aCBpZD0icGF0aDUyMTE3IiBpbmtzY2FwZTpjb25uZWN0b3ItY3VydmF0dXJlPSIwIiBzdHlsZT0iZmlsbDojZmY4YzAwO2ZpbGwtb3BhY2l0eTowLjMiIGQ9Im0gNDMuMTgsMjAuMTkgLTIuNSwwLjAxIC05LjIxLDEzLjgyIDExLjg3LC0xMy40NiBjIDAuMTgsLTAuMjEgMC4xLC0wLjM3IC0wLjE2LC0wLjM3IHoiLz4mI3hhOzwvc3ZnPg==;fontSize=14;fontStyle=1" parent="1" vertex="1">
          <mxGeometry x="348" y="189" width="57" height="52" as="geometry"/>
        </mxCell>
        <mxCell id="_erQFh2zbSMZ1la7vPeI-1" value="&lt;font size=&quot;1&quot;&gt;&lt;b style=&quot;font-size: 14px&quot;&gt;External Service &lt;/b&gt;&lt;/font&gt;" style="aspect=fixed;html=1;points=[];align=center;image;fontSize=12;image=img/lib/mscae/WebHosting.svg;strokeWidth=14;" vertex="1" parent="1">
          <mxGeometry x="640" y="216" width="50" height="50" as="geometry"/>
        </mxCell>
      </root>
    </mxGraphModel>
  </diagram>
</mxfile>
